<svg xmlns="http://www.w3.org/2000/svg" viewBox="0 0 375 375" version="1.0">
  <defs>
    <clipPath id="tt_clip">
      <path d="M71.98 0h231v232h-231Zm0 0"/>
    </clipPath>
  </defs>
  
  <path fill="#4b0082" d="M187.496 241.434c38.344-.07 64.336-17.016 71.824-22.989v156.57l-36.28-35.542-36.29-35.543-34.797 35.543-34.808 35.543V219.93c7.757 5.918 33.226 21.566 70.351 21.504m0 0"/>
  
  <g clip-path="url(#tt_clip)">
    <path fill="#4b0082" d="M187.496.027q-2.836 0-5.668.141c-1.887.094-3.773.23-5.656.418a114 114 0 0 0-11.211 1.66q-2.783.557-5.535 1.242-2.749.69-5.461 1.516-2.717.821-5.387 1.777a117 117 0 0 0-5.289 2.04 120 120 0 0 0-5.184 2.3 114 114 0 0 0-9.996 5.344 114 114 0 0 0-9.425 6.297 116 116 0 0 0-4.473 3.488q-2.19 1.8-4.293 3.703a118 118 0 0 0-4.106 3.91 114 114 0 0 0-7.613 8.399 116 116 0 0 0-6.754 9.105 122 122 0 0 0-3.03 4.79 123 123 0 0 0-2.798 4.933 116 116 0 0 0-4.844 10.25 114 114 0 0 0-3.82 10.672 111 111 0 0 0-1.512 5.465q-.69 2.754-1.242 5.53a113 113 0 0 0-.969 5.59 113 113 0 0 0-.695 5.626 114 114 0 0 0-.555 11.324 114 114 0 0 0 1.25 16.95c.278 1.87.598 3.73.97 5.585q.55 2.784 1.241 5.531.685 2.754 1.512 5.465.821 2.715 1.777 5.383a115.5 115.5 0 0 0 9.684 20.473 119 119 0 0 0 3.031 4.789q1.577 2.36 3.266 4.636 1.689 2.279 3.488 4.47c1.2 1.46 2.434 2.894 3.703 4.292q1.906 2.101 3.91 4.11a121 121 0 0 0 4.106 3.91 117 117 0 0 0 4.293 3.703 116 116 0 0 0 13.898 9.785q2.432 1.458 4.934 2.793a116 116 0 0 0 10.246 4.848 117 117 0 0 0 5.29 2.042 117 117 0 0 0 10.847 3.29q2.753.69 5.535 1.242a117 117 0 0 0 11.21 1.664q2.826.276 5.657.418 2.831.136 5.668.137 2.836-.001 5.668-.137 2.832-.142 5.656-.418 2.82-.28 5.625-.696a117 117 0 0 0 11.121-2.21q2.748-.692 5.461-1.512a117 117 0 0 0 5.387-1.778 117 117 0 0 0 10.473-4.34 112 112 0 0 0 5.062-2.55q2.502-1.334 4.934-2.793a116 116 0 0 0 13.898-9.785q2.19-1.8 4.293-3.703a121 121 0 0 0 4.106-3.91q2.005-2.008 3.91-4.11a114 114 0 0 0 3.703-4.293q1.8-2.19 3.488-4.469a115 115 0 0 0 6.297-9.426 114 114 0 0 0 5.344-9.996 116 116 0 0 0 4.34-10.476c.636-1.777 1.23-3.574 1.777-5.383q.826-2.711 1.512-5.465.69-2.748 1.242-5.531c.371-1.855.691-3.715.969-5.586q.417-2.806.695-5.629c.188-1.879.324-3.765.418-5.652a114 114 0 0 0 0-11.336c-.094-1.89-.23-3.774-.418-5.656a113 113 0 0 0-.695-5.625 113 113 0 0 0-.969-5.59 113 113 0 0 0-1.242-5.531 111 111 0 0 0-1.512-5.465 114 114 0 0 0-3.82-10.672 116 116 0 0 0-4.844-10.25 118 118 0 0 0-5.828-9.723q-1.576-2.356-3.266-4.637a116 116 0 0 0-7.191-8.761 114 114 0 0 0-3.91-4.106 118 118 0 0 0-4.106-3.91 117 117 0 0 0-4.293-3.703 116 116 0 0 0-9.105-6.754 114 114 0 0 0-4.793-3.031 114 114 0 0 0-9.996-5.344 120 120 0 0 0-5.184-2.3 117 117 0 0 0-5.289-2.04 113 113 0 0 0-5.387-1.777 115 115 0 0 0-5.46-1.516q-2.754-.685-5.536-1.242a114 114 0 0 0-11.21-1.66 114 114 0 0 0-5.657-.418 114 114 0 0 0-5.668-.14m0 207.336q-2.237.001-4.469-.11a89 89 0 0 1-4.457-.327 89 89 0 0 1-4.437-.547 92 92 0 0 1-8.766-1.742 90 90 0 0 1-4.308-1.196 84 84 0 0 1-4.246-1.402 93 93 0 0 1-8.258-3.418 89 89 0 0 1-3.992-2.012 91 91 0 0 1-7.668-4.593 95 95 0 0 1-3.657-2.575 96 96 0 0 1-3.523-2.75 93 93 0 0 1-3.387-2.921 93 93 0 0 1-6.32-6.32 92 92 0 0 1-2.918-3.384 92 92 0 0 1-5.324-7.18 93 93 0 0 1-4.598-7.667 91 91 0 0 1-5.43-12.25q-.75-2.108-1.402-4.246a91.3 91.3 0 0 1-3.922-26.438 90 90 0 0 1 .441-8.93c.145-1.484.329-2.96.547-4.437q.33-2.21.762-4.402a91.5 91.5 0 0 1 3.574-12.918 93 93 0 0 1 3.422-8.258 95 95 0 0 1 2.008-3.992 93 93 0 0 1 4.598-7.668 91.6 91.6 0 0 1 8.242-10.563 93 93 0 0 1 6.32-6.32q1.658-1.5 3.387-2.922a96 96 0 0 1 3.523-2.75 90.4 90.4 0 0 1 11.324-7.168 93 93 0 0 1 3.993-2.012 93 93 0 0 1 8.257-3.418 89 89 0 0 1 4.247-1.402 86 86 0 0 1 4.308-1.191 88 88 0 0 1 4.36-.98q2.191-.44 4.406-.767a89 89 0 0 1 4.437-.546 94 94 0 0 1 4.457-.328 90 90 0 0 1 4.47-.11q2.236-.001 4.468.11 2.234.11 4.457.328 2.227.217 4.437.547 2.215.326 4.407.765 2.19.435 4.363.98a90 90 0 0 1 8.55 2.594c1.403.5 2.794 1.04 4.173 1.61a91 91 0 0 1 4.085 1.808 93 93 0 0 1 7.883 4.215 88 88 0 0 1 3.778 2.39 95 95 0 0 1 3.656 2.575 96 96 0 0 1 3.523 2.75 97 97 0 0 1 3.387 2.922 93 93 0 0 1 6.32 6.32 93 93 0 0 1 5.668 6.91 88 88 0 0 1 2.575 3.653 93 93 0 0 1 4.597 7.668 91 91 0 0 1 5.43 12.25q.751 2.108 1.402 4.246a91.3 91.3 0 0 1 3.922 26.441q-.002 2.234-.11 4.469a95 95 0 0 1-.327 4.457 94 94 0 0 1-1.313 8.84 91.5 91.5 0 0 1-3.574 12.918 93 93 0 0 1-3.422 8.258 89 89 0 0 1-4.215 7.883 93 93 0 0 1-2.39 3.777 88 88 0 0 1-2.575 3.652 89 89 0 0 1-2.75 3.527 92 92 0 0 1-2.918 3.383 93 93 0 0 1-6.32 6.32 93 93 0 0 1-3.387 2.922 96 96 0 0 1-3.523 2.75 95 95 0 0 1-3.656 2.575 91 91 0 0 1-7.668 4.594 89 89 0 0 1-8.078 3.82 88 88 0 0 1-4.172 1.61 93 93 0 0 1-8.55 2.598 94 94 0 0 1-8.77 1.74 89 89 0 0 1-4.438.548c-1.48.144-2.969.258-4.457.328q-2.232.11-4.469.11m0 0"/>
  </g>
  
  <path fill="#4b0082" d="m223.77 129.21 8.503 49.595-44.539-23.414-44.543 23.414 8.512-49.594-36.031-35.125 49.797-7.234 22.265-45.122 22.262 45.122 49.805 7.234Zm0 0"/>
</svg>